<svg width="51" height="51" viewBox="0 0 51 51" fill="none" xmlns="http://www.w3.org/2000/svg">
<path d="M43.0313 6.375H30.2813C30.0372 6.37498 29.7964 6.43101 29.5774 6.53877C29.3584 6.64654 29.1671 6.80316 29.0182 6.99656L16.2682 23.5736L14.3438 21.6531C14.0477 21.3567 13.6962 21.1216 13.3092 20.9612C12.9223 20.8008 12.5075 20.7182 12.0886 20.7182C11.6697 20.7182 11.2549 20.8008 10.868 20.9612C10.481 21.1216 10.1295 21.3567 9.83344 21.6531L8.10223 23.3863C7.80616 23.6823 7.57131 24.0337 7.41108 24.4205C7.25084 24.8073 7.16837 25.2218 7.16837 25.6405C7.16837 26.0591 7.25084 26.4736 7.41108 26.8604C7.57131 27.2472 7.80616 27.5986 8.10223 27.8946L12.485 32.2774L6.11004 38.6524C5.81398 38.9484 5.57912 39.2998 5.41889 39.6866C5.25866 40.0734 5.17619 40.4879 5.17619 40.9066C5.17619 41.3252 5.25866 41.7398 5.41889 42.1266C5.57912 42.5133 5.81398 42.8647 6.11004 43.1607L7.84125 44.89C8.43896 45.4873 9.2494 45.8228 10.0944 45.8228C10.9394 45.8228 11.7499 45.4873 12.3476 44.89L18.7226 38.515L23.1054 42.8978C23.4014 43.1941 23.753 43.4292 24.1399 43.5897C24.5269 43.7501 24.9417 43.8326 25.3605 43.8326C25.7794 43.8326 26.1942 43.7501 26.5812 43.5897C26.9681 43.4292 27.3197 43.1941 27.6157 42.8978L29.3469 41.1646C29.643 40.8686 29.8778 40.5172 30.0381 40.1304C30.1983 39.7436 30.2808 39.3291 30.2808 38.9104C30.2808 38.4918 30.1983 38.0772 30.0381 37.6904C29.8778 37.3037 29.643 36.9522 29.3469 36.6563L27.4264 34.7358L44.0034 21.9858C44.1974 21.8365 44.3543 21.6445 44.4621 21.4248C44.5699 21.2051 44.6256 20.9635 44.625 20.7188V7.96875C44.625 7.54606 44.4571 7.14069 44.1582 6.8418C43.8593 6.54291 43.4539 6.375 43.0313 6.375ZM41.4375 19.9338L25.1534 32.4607L22.9739 30.2813L33.0026 20.2526C33.3014 19.9535 33.4691 19.548 33.4689 19.1253C33.4687 18.7026 33.3006 18.2972 33.0016 17.9984C32.7025 17.6996 32.297 17.5319 31.8743 17.5321C31.4516 17.5323 31.0462 17.7004 30.7474 17.9994L20.7188 28.0261L18.5413 25.8466L31.0662 9.5625H41.4375V19.9338Z" fill="white"/>
</svg>
