<svg width="52" height="52" viewBox="0 0 52 52" fill="none" xmlns="http://www.w3.org/2000/svg">
<g clip-path="url(#clip0_205_101)">
<path d="M10.6905 18.1128C9.733 16.4753 10.2418 14.361 11.8499 13.336C12.6518 12.8272 13.5986 12.6647 14.5217 12.8691C15.0842 12.9947 15.5905 13.2541 16.0155 13.6153C16.2818 13.1991 16.6386 12.8335 17.0811 12.5503L17.0824 12.5491C18.7336 11.5003 20.9224 11.9947 21.9717 13.6403L24.5255 17.661L24.648 17.2797C25.2505 15.4241 27.2518 14.406 29.1074 15.0028C29.5411 15.1422 29.9286 15.3622 30.2599 15.6378C30.9093 13.8603 32.8624 12.896 34.6768 13.4847C35.578 13.7747 36.3136 14.3947 36.743 15.2385C37.0068 15.7453 37.1318 16.2991 37.1249 16.8566C37.6143 16.7947 38.1224 16.8353 38.6211 16.9978C40.4767 17.601 41.4999 19.6022 40.8974 21.4578L38.6536 28.401L38.1855 28.7416V28.7472L38.6611 28.401L37.018 33.4935C37.0174 33.4953 37.0167 33.4972 37.0161 33.4991C36.948 33.7028 36.9061 33.8735 36.8824 34.0178L40.0168 31.5116C41.5536 30.2835 43.8036 30.4778 45.023 31.9291C45.6424 32.6622 45.9324 33.5947 45.8386 34.5553C45.7449 35.516 45.2742 36.3697 44.5236 36.9722L44.5224 36.9728L38.4168 41.8485C38.0549 42.1378 37.743 42.4641 37.4886 42.8266C34.6868 46.8222 31.1218 48.8447 27.0599 48.8447C25.6605 48.8447 24.2024 48.6085 22.6867 48.1147C20.6392 47.4516 18.4593 46.2047 16.7868 44.3878C16.6436 44.2722 16.4967 44.1591 16.3542 44.0291C14.3761 42.2291 12.1461 38.5797 10.3586 35.6391C9.91175 34.9097 9.5055 34.2391 9.14613 33.6728L6.55362 29.641L6.55238 29.6385C6.04363 28.8372 5.88113 27.891 6.08613 26.9672C6.2905 26.0435 6.84175 25.2553 7.64363 24.7466L7.64613 24.7453C8.03238 24.5035 8.4455 24.3453 8.86675 24.266L8.37113 23.486C7.86238 22.6847 7.69988 21.7385 7.90488 20.8147C8.10925 19.891 8.66113 19.1035 9.463 18.5941L9.4655 18.5928C9.85238 18.3497 10.2674 18.1916 10.6905 18.1128ZM23.1774 27.5366C23.2261 27.5522 23.2774 27.5603 23.3299 27.5603L23.2211 27.3997L23.1774 27.5366ZM23.5549 26.3778L23.6668 26.5303L23.5549 26.3766V26.3778ZM30.8255 19.6303L30.9374 19.7847L30.8255 19.6291V19.6303ZM30.918 19.3453L31.0299 19.4966L30.9186 19.3428L30.918 19.3453ZM32.2355 30.9766L32.3461 31.1228L32.2368 30.9722L32.2355 30.9766ZM23.3299 27.5603C23.5355 27.5603 23.7192 27.4347 23.7942 27.2453L23.3299 27.5603ZM23.3736 27.436L23.8493 27.0916L23.8255 27.1635L23.3493 27.5116L23.813 27.1991L23.8005 27.2297L23.6499 27.7016L23.6486 27.7047L23.473 28.2416C23.4724 28.2435 23.4718 28.246 23.4711 28.2478L23.4105 28.431L22.9342 28.7791L23.4093 28.436C23.2161 29.0197 22.5886 29.3478 21.9974 29.1566C21.4836 28.9972 21.1836 28.501 21.228 27.9916C21.2286 27.9822 21.2293 27.9735 21.2311 27.9641C21.2405 27.8947 21.2436 27.8353 21.2605 27.7697C21.263 27.7585 21.2661 27.7472 21.2699 27.736L21.7755 26.181C21.7767 26.1766 21.778 26.1716 21.7799 26.1672L22.053 25.4035L22.2999 24.6366L23.2174 21.7885L23.3805 21.2778C23.4843 20.9485 23.4593 20.6016 23.3005 20.296V20.2947C23.1418 19.9866 22.8761 19.7616 22.5474 19.6535C22.218 19.5503 21.8661 19.5753 21.5599 19.7335L21.5592 19.7341C21.2505 19.8928 21.0249 20.1597 20.9167 20.4897L20.9161 20.4916L20.7411 21.0216L20.2436 22.5678L19.438 25.0566C19.2543 25.6222 19.0286 26.2666 18.7911 26.9691C18.7899 26.9728 18.7886 26.9766 18.7874 26.9803C18.7499 27.0841 18.7193 27.1785 18.6836 27.2822C18.6355 27.4247 18.5774 27.5747 18.5292 27.7216C18.5274 27.7266 18.5261 27.731 18.5243 27.7353C18.4374 27.9766 18.3505 28.2297 18.2642 28.4828C18.1274 28.8947 17.9836 29.3116 17.8399 29.7428C17.673 30.2466 17.5055 30.7603 17.3505 31.2691L17.3499 31.271C16.7393 33.2447 16.2255 35.2097 16.1586 36.6278C16.0386 39.1728 16.9667 41.2235 18.3555 42.7766C19.0911 43.596 19.958 44.2772 20.8611 44.821C21.583 45.2566 22.333 45.606 23.0642 45.8641C23.073 45.8672 23.0817 45.8703 23.0911 45.8741C23.1842 45.9135 23.2843 45.9478 23.3799 45.9803C28.3405 47.5803 32.4655 46.0797 35.6499 41.5372C36.0205 41.0003 36.4861 40.5135 37.0167 40.0903L43.1211 35.216C43.3961 34.9935 43.5636 34.6828 43.5986 34.3297C43.6343 33.9797 43.5255 33.6422 43.3005 33.371C42.8474 32.8372 42.0036 32.7997 41.4193 33.2647L37.9386 36.0447C37.9361 36.0472 37.933 36.0491 37.9305 36.0516C37.3805 36.4716 36.7211 36.6085 36.1399 36.4803C35.8911 36.4291 35.6567 36.3322 35.4517 36.1841C35.4449 36.1797 35.4386 36.1747 35.4318 36.1691C35.3993 36.1428 35.3593 36.1103 35.328 36.081C35.0393 35.8297 34.7036 35.3991 34.6224 34.646C34.6199 34.6216 34.6186 34.5972 34.6199 34.5722C34.6268 34.3997 34.6268 34.2253 34.6199 34.0503C34.6186 34.0266 34.6199 34.0035 34.6218 33.9803C34.6568 33.6378 34.7261 33.2547 34.8755 32.7953L35.1124 32.0628C35.113 32.061 35.1136 32.0591 35.1142 32.0572L35.4305 31.1166L35.5368 30.7835L35.5374 30.7816L36.4749 27.881L38.7818 20.7378L38.7824 20.7366C39.0024 20.061 38.6286 19.331 37.9536 19.111C37.2742 18.891 36.5474 19.2641 36.3274 19.9397L36.1955 20.3441L35.5905 22.226L35.5899 22.2272L35.0967 23.746L34.9211 24.2835L33.6518 28.201L32.8261 30.7622L32.8224 30.776L32.808 30.8266L32.3267 31.191L32.803 30.8435L32.6267 31.3928C32.6261 31.3947 32.6255 31.3966 32.6249 31.3985C32.4674 31.8722 32.0311 32.1722 31.5574 32.1722C31.4499 32.1722 31.3293 32.1528 31.2174 32.1185C31.2143 32.1178 31.2111 32.1166 31.2074 32.1153C30.6242 31.9222 30.2955 31.2947 30.4886 30.6985L31.3942 27.8935L32.9567 23.0566L33.9505 19.9878L34.2236 19.1428L34.2242 19.141L34.4561 18.436L34.848 17.2266C34.9518 16.8972 34.9267 16.5447 34.768 16.2378L34.7674 16.2372C34.6092 15.9291 34.3436 15.7035 34.0143 15.596C33.3343 15.3822 32.6074 15.7553 32.3868 16.4316L31.8305 18.1497L31.5055 19.151L31.0299 19.4966L31.5036 19.1578L31.4155 19.4316L30.9374 19.7847L31.413 19.4391L30.7686 21.426L30.1068 23.4766L29.4574 25.476L29.258 26.0997L29.2568 26.1028L29.0568 26.7153L28.5686 28.2135L28.0199 29.9072C27.9736 30.0485 27.9005 30.1766 27.8086 30.2816L27.8386 30.2441L27.7361 30.356C27.7324 30.3597 27.7286 30.3635 27.7249 30.3672C27.6574 30.4303 27.5917 30.4828 27.518 30.5253C27.4886 30.5428 27.4536 30.5616 27.418 30.5791C27.4155 30.5803 27.4124 30.5816 27.4099 30.5835C27.3136 30.6291 27.2305 30.6528 27.1399 30.6678L27.0905 30.6741C27.0574 30.6822 27.0224 30.6872 26.983 30.6878L26.943 30.6953C26.8355 30.6953 26.7149 30.676 26.603 30.6416C26.5999 30.6403 26.5967 30.6391 26.593 30.6385C26.0099 30.4453 25.6811 29.8178 25.8736 29.2222L26.2936 27.916L26.2942 27.9147L27.088 25.4703L27.3317 24.7216L27.5805 23.9478L29.2624 18.7497C29.4761 18.0703 29.1043 17.3428 28.4286 17.1216C27.7486 16.9078 27.0211 17.281 26.8011 17.9572L26.0249 20.3441L25.7811 21.1041L25.5055 21.9703L25.5049 21.9728L24.1424 26.1841L23.6668 26.5303L24.1417 26.1872L24.0999 26.3172L23.623 26.6672L24.0986 26.321L23.8493 27.0903L23.3736 27.436ZM22.9342 28.7791L22.7649 28.5428C22.7649 28.5428 22.7643 28.5428 22.7643 28.5435L22.9342 28.7791ZM27.0905 30.6741C27.1055 30.6697 27.1199 30.6653 27.1349 30.6597L26.998 30.6853L27.0905 30.6741ZM26.998 30.6853L26.9749 30.6878C26.9774 30.6878 26.9805 30.6878 26.983 30.6878L26.998 30.6853ZM17.7499 14.2322C17.8736 14.3947 18.0243 14.516 18.0243 14.516C18.0243 14.516 18.0018 14.2885 17.9624 14.0572C17.8861 14.111 17.8155 14.1697 17.7499 14.2322ZM18.0243 14.516C18.0243 14.516 18.1261 14.5316 18.2674 14.4535L18.0243 14.516ZM18.2943 14.4372C17.6949 14.8216 17.5193 15.6203 17.898 16.2253L19.4161 18.6135C19.7149 18.2491 20.0849 17.9466 20.5149 17.7272C20.8874 17.5347 21.2836 17.4166 21.6874 17.3685L20.0786 14.8347C19.6949 14.2366 18.8924 14.0535 18.2943 14.4372ZM12.703 14.8735L12.8049 15.3047C12.8049 15.3047 12.7868 15.0735 12.7524 14.8385C12.7355 14.8497 12.7192 14.8616 12.703 14.8735ZM12.8049 15.3047C12.8824 15.3047 12.9593 15.2866 13.028 15.2516C13.0424 15.2447 13.0567 15.2366 13.0699 15.2278L12.8049 15.3047ZM13.0699 15.2278C12.4674 15.606 12.2949 16.4078 12.673 17.006L14.3624 19.676L17.2974 24.2972L18.3305 21.1072L14.8505 15.6241L14.8499 15.6228C14.6655 15.3297 14.383 15.1341 14.0467 15.056C13.708 14.9847 13.3643 15.0422 13.0718 15.2272L13.0699 15.2278ZM8.21675 26.5278C8.3705 26.7178 8.6005 26.7035 8.6005 26.7035L8.26425 26.476C8.248 26.4928 8.23238 26.5103 8.21675 26.5278ZM8.86675 26.6266C8.57362 26.811 8.37175 27.0997 8.2955 27.4403C8.22363 27.7791 8.28113 28.1235 8.46613 28.4166L11.0411 32.4703C11.4117 33.0491 11.8261 33.7335 12.2774 34.4735L12.278 34.4747C12.7699 35.2878 13.3211 36.1922 13.8986 37.1035C13.898 36.9116 13.9024 36.7178 13.9117 36.521V36.5191C13.9642 35.5078 14.1917 34.2991 14.5174 33.016C14.4317 32.9441 14.3555 32.8578 14.2911 32.7585L14.2893 32.756L10.6467 27.0235L10.6455 27.0216C10.4618 26.7285 10.1786 26.5328 9.84238 26.4547C9.50425 26.3835 9.1605 26.441 8.868 26.626C8.86738 26.626 8.86737 26.6266 8.86675 26.6266ZM9.58613 21.6141C9.613 21.6547 9.6305 21.6791 9.6305 21.6791C9.6305 21.6791 9.67425 21.3128 9.673 21.0247C9.65675 21.0747 9.643 21.1266 9.6305 21.1791C9.59738 21.3241 9.583 21.4697 9.58613 21.6141ZM10.118 21.291C10.0411 21.6272 10.1049 21.9722 10.2886 22.2597L10.2899 22.2616L12.5455 25.8185C12.5455 25.8185 15.3224 30.1941 15.323 30.1935C15.6611 29.1172 16.0261 28.0435 16.3743 27.0322L12.4655 20.8785L12.4649 20.8772C12.0874 20.2803 11.2868 20.0991 10.6893 20.4816C10.688 20.4828 10.6867 20.4835 10.6855 20.4841C10.3917 20.6691 10.1955 20.9528 10.118 21.291Z" fill="white"/>
<path d="M24.5986 14.311L20.3599 6.13721C20.2736 5.97096 20.2649 5.77534 20.3349 5.60159C20.4049 5.42784 20.548 5.29346 20.7255 5.23346L23.4086 4.33284C23.5861 4.27346 23.7811 4.29409 23.9418 4.39034C24.103 4.48659 24.2136 4.64784 24.2449 4.83284L25.8005 13.9078C25.8536 14.2191 25.6718 14.5235 25.3724 14.6241C25.0724 14.7247 24.7443 14.5922 24.5986 14.311Z" fill="white"/>
<path d="M33.445 6.24796L28.1325 13.7605C27.955 14.0117 27.62 14.0961 27.3443 13.9592C27.0681 13.8223 26.9337 13.5042 27.0268 13.2105L29.81 4.43608C29.865 4.26233 29.9937 4.12108 30.1618 4.04983C30.3306 3.97858 30.5212 3.98421 30.685 4.06608L33.2143 5.32796C33.3775 5.40983 33.4968 5.55796 33.5412 5.73483C33.5856 5.91171 33.5506 6.09921 33.445 6.24796Z" fill="white"/>
</g>
<defs>
<clipPath id="clip0_205_101">
<rect width="40" height="45" fill="white" transform="translate(6 4)"/>
</clipPath>
</defs>
</svg>
