<svg width="51" height="54" viewBox="0 0 51 54" fill="none" xmlns="http://www.w3.org/2000/svg">
<g clip-path="url(#clip0_205_111)">
<path d="M45.091 31.5358C44.828 30.609 44.1705 29.8588 43.2939 29.3733C41.8913 28.6231 40.664 28.9761 39.6997 29.594C38.1656 26.4165 35.1413 24.2099 31.5909 23.8569V17.4578C32.5552 17.7226 33.5195 17.855 34.4838 17.855C36.2809 17.855 37.9465 17.4137 39.3929 16.4869C41.716 15.0306 43.2939 12.5151 43.7761 9.42591C43.9952 8.49915 43.4692 7.61653 42.5926 7.35174C39.6121 6.42498 36.6754 6.7339 34.3523 8.19023C32.1607 9.55831 30.6705 11.8531 30.0568 14.6334C29.3117 13.4419 28.3474 12.4269 27.1639 11.7207C24.8409 10.2644 21.9042 9.95549 18.9236 10.8823C18.047 11.147 17.521 12.0297 17.6525 12.9123C18.1347 16.0015 19.7126 18.517 22.0357 19.9733C23.4821 20.9001 25.1915 21.3414 26.9448 21.3414C27.9091 21.3414 28.8734 21.209 29.8377 20.9442V23.8128C26.5065 24.1217 23.5698 26.1076 21.948 29.1527C20.9837 28.7996 20.1071 28.6231 19.5373 28.6231C15.5048 28.6231 12.1298 30.1236 9.45604 33.0362H6.65083C6.16868 33.0362 5.7742 33.4334 5.7742 33.9189V45.393C5.7742 45.8785 6.16868 46.2757 6.65083 46.2757H31.5033C34.177 46.2757 36.6754 45.04 38.2095 42.9658L44.6965 34.2278C44.6965 34.1837 44.7404 34.1837 44.7404 34.1395C45.2225 33.3452 45.354 32.4184 45.091 31.5358ZM35.2728 9.73484C37.2013 8.54329 39.6121 8.32263 42.0666 9.07286L42.1105 9.11699C41.716 11.6766 40.401 13.7949 38.5163 14.9865C36.5877 16.178 34.177 16.3987 31.7224 15.6484L31.6786 15.6043C32.0731 13.0006 33.388 10.9264 35.2728 9.73484ZM29.7938 19.179C27.2954 19.9292 24.8847 19.7085 23 18.517C21.1152 17.3254 19.8003 15.2071 19.4058 12.6475C19.4058 12.6475 19.4058 12.6034 19.4496 12.6034C20.4139 12.2945 21.3344 12.1621 22.2548 12.1621C23.7013 12.1621 25.06 12.5151 26.2435 13.2654C28.1282 14.4569 29.4432 16.5311 29.8377 19.0907C29.8377 19.1348 29.8377 19.179 29.7938 19.179ZM30.7581 25.578C34.1331 25.578 37.026 27.6963 38.341 30.7855L35.7987 33.5217L33.8702 35.64C33.8263 34.4043 33.1689 33.3452 32.1607 32.7714C31.5909 32.4184 30.9335 32.2419 30.2321 32.2419H26.0682C25.8052 31.8888 25.5422 31.5799 25.2354 31.3151C24.7094 30.7855 24.1396 30.3442 23.5698 29.9912C25.06 27.2992 27.7776 25.578 30.7581 25.578ZM43.2501 33.2569L36.8069 41.9508C35.5796 43.5837 33.6072 44.5545 31.5033 44.5545H7.52746V34.8456H10.1135C10.1573 34.8456 10.2012 34.8015 10.245 34.8015C10.245 34.8015 10.2888 34.8015 10.2888 34.7574C10.3327 34.7574 10.3765 34.7132 10.3765 34.7132C10.3765 34.7132 10.4642 34.625 10.508 34.5808C10.7272 34.3602 10.9025 34.1395 11.1216 33.9189C13.4009 31.5799 16.2061 30.4766 19.5373 30.4766C20.6769 30.4766 22.8685 31.2268 24.4902 33.1686C24.6217 33.301 24.7094 33.4776 24.8409 33.6099L24.8847 33.6541C24.8847 33.6982 24.9285 33.6982 24.9724 33.7423L25.0162 33.7865C25.06 33.7865 25.06 33.8306 25.1039 33.8306C25.1039 33.8306 25.1477 33.8747 25.1915 33.8747C25.2354 33.8747 25.2354 33.9189 25.2792 33.9189C25.323 33.9189 25.323 33.9189 25.3669 33.963H30.2321C31.2841 33.963 32.1169 34.7574 32.1169 35.7283C32.1169 36.6991 31.2841 37.4935 30.2321 37.4935H18.6606C18.1785 37.4935 17.784 37.8907 17.784 38.3761C17.784 38.8616 18.1785 39.2588 18.6606 39.2588H30.8458C32.1607 39.2588 33.4318 38.6851 34.3523 37.7142L39.7874 31.8006C41.1023 30.5649 41.8037 30.5649 42.505 30.9179C42.9433 31.1386 43.2939 31.5358 43.4254 31.9771C43.5131 32.4184 43.4692 32.8597 43.2501 33.2569Z" fill="white"/>
</g>
<defs>
<clipPath id="clip0_205_111">
<rect width="51" height="54" fill="white"/>
</clipPath>
</defs>
</svg>
