<svg width="52" height="53" viewBox="0 0 52 53" fill="none" xmlns="http://www.w3.org/2000/svg">
<path fill-rule="evenodd" clip-rule="evenodd" d="M17.2272 8.1618C18.0874 7.8152 19.1393 8.05797 19.8741 8.82189L40.3961 30.1705L39.5951 30.2493C37.4493 30.461 35.778 32.1478 35.5703 34.2931C35.453 35.4924 34.528 36.4173 33.3448 36.5327C31.201 36.7444 29.5277 38.4292 29.32 40.575L29.2533 41.2547L8.75687 19.9331C8.04762 19.1963 7.82642 18.166 8.15747 17.3153C9.08441 14.9287 10.0856 13.1732 11.4549 11.7587C12.8228 10.3462 14.6174 9.21163 17.2272 8.1613V8.1618ZM29.2162 44.1077L29.1279 44.0194L7.31079 21.3245C6.11751 20.0826 5.64551 18.2407 6.28804 16.589C7.26966 14.0615 8.39071 12.0396 10.0129 10.3643C11.635 8.68697 13.7005 7.41945 16.4788 6.3004C18.1853 5.61473 20.0878 6.14942 21.3202 7.43098L43.1082 30.0968C43.1749 30.1655 43.2376 30.2358 43.2963 30.3085C43.3179 30.3321 43.3375 30.3576 43.357 30.3847C43.7432 30.8843 43.988 31.4842 44.0608 32.1152L45.095 41.2281C45.248 42.5643 44.7951 43.8965 43.8511 44.8446C42.9066 45.7951 41.5779 46.2515 40.2437 46.0985L31.2251 45.0622C30.6493 44.9975 30.1005 44.7839 29.6305 44.4528C29.462 44.3766 29.3185 44.2572 29.2167 44.1082L29.2162 44.1077ZM31.1012 42.9811L31.3164 40.7691C31.4342 39.5698 32.3572 38.6469 33.5424 38.5295C35.6857 38.3199 37.359 36.633 37.5667 34.4872C37.6845 33.2884 38.6075 32.3635 39.7907 32.2461L41.9947 32.0304C42.0303 32.1303 42.0539 32.2361 42.0654 32.3419L42.8354 39.1054C41.609 39.0467 40.3665 39.4775 39.4321 40.418C38.4976 41.3565 38.0703 42.6045 38.129 43.8354L31.4533 43.0689C31.3339 43.0554 31.215 43.0258 31.1012 42.9811ZM40.1709 44.0706C40.028 43.263 40.2627 42.4269 40.8546 41.833C41.4445 41.2411 42.2691 41.0064 43.0666 41.1473L43.1022 41.4528C43.1865 42.1992 42.9337 42.9225 42.4281 43.4296C41.9225 43.9372 41.2072 44.19 40.4709 44.1057L40.1709 44.0706Z" fill="white"/>
</svg>
